<svg xmlns="http://www.w3.org/2000/svg" version="1.1" xmlns:xlink="http://www.w3.org/1999/xlink" xmlns:svgjs="http://svgjs.dev/svgjs" viewBox="0 0 21.618432953891126 10.79000442010668">
    <g transform="matrix(1,0,0,1,1.2573379288986857,6.831826491207995)">
        <g>
            <path d=" M 0.29861400000000005 2.600034 Q 0.11031600000000001 2.499228 -0.0038040000000000005 2.32044 L 0.11412000000000001 2.191104 Q 0.22443600000000002 2.354676 0.374694 2.4402660000000003 Q 0.5249520000000001 2.525856 0.7037400000000001 2.525856 Q 0.9700200000000001 2.525856 1.101258 2.371794 Q 1.2324960000000003 2.217732 1.2324960000000003 1.898196 L 1.2324960000000003 0.19400399999999962 L 0.251064 0.19400399999999962 L 0.251064 0.019019999999999815 L 1.4265 0.019019999999999815 L 1.4265 1.898196 Q 1.4265 2.297616 1.2439080000000002 2.499228 Q 1.0613160000000001 2.70084 0.7037400000000001 2.70084 Q 0.48691200000000007 2.70084 0.29861400000000005 2.600034 M 3.230386593046875 2.5239540000000003 Q 2.9146545930468752 2.347068 2.733964593046875 2.038944 Q 2.553274593046875 1.73082 2.553274593046875 1.35042 Q 2.553274593046875 0.9700199999999999 2.733964593046875 0.6618959999999996 Q 2.9146545930468752 0.35377199999999975 3.230386593046875 0.17688599999999965 Q 3.5461185930468755 -4.440892098500626e-16 3.9379305930468753 -4.440892098500626e-16 Q 4.329742593046875 -4.440892098500626e-16 4.645474593046876 0.1749839999999998 Q 4.961206593046875 0.3499679999999996 5.141896593046876 0.6580919999999999 Q 5.322586593046875 0.966216 5.322586593046875 1.35042 Q 5.322586593046875 1.734624 5.141896593046876 2.042748 Q 4.961206593046875 2.350872 4.645474593046876 2.525856 Q 4.329742593046875 2.70084 3.9379305930468753 2.70084 Q 3.5461185930468755 2.70084 3.230386593046875 2.5239540000000003 M 4.542766593046876 2.369892 Q 4.812850593046875 2.217732 4.968814593046876 1.94955 Q 5.124778593046875 1.681368 5.124778593046875 1.35042 Q 5.124778593046875 1.019472 4.968814593046876 0.7512899999999998 Q 4.812850593046875 0.48310799999999965 4.542766593046876 0.3309479999999998 Q 4.272682593046875 0.17878799999999995 3.9379305930468753 0.17878799999999995 Q 3.6031785930468754 0.17878799999999995 3.3311925930468753 0.3309479999999998 Q 3.0592065930468753 0.48310799999999965 2.9032425930468753 0.7512899999999998 Q 2.7472785930468753 1.019472 2.7472785930468753 1.35042 Q 2.7472785930468753 1.681368 2.9032425930468753 1.94955 Q 3.0592065930468753 2.217732 3.3311925930468753 2.369892 Q 3.6031785930468754 2.522052 3.9379305930468753 2.522052 Q 4.272682593046875 2.522052 4.542766593046876 2.369892 M 8.640407606015625 0.019019999999999815 L 8.640407606015625 2.68182 L 8.446403606015625 2.68182 L 8.446403606015625 1.415088 L 6.666131606015625 1.415088 L 6.666131606015625 2.68182 L 6.472127606015626 2.68182 L 6.472127606015626 0.019019999999999815 L 6.666131606015625 0.019019999999999815 L 6.666131606015625 1.2439079999999998 L 8.446403606015625 1.2439079999999998 L 8.446403606015625 0.019019999999999815 L 8.640407606015625 0.019019999999999815 M 12.213146769375001 0.019019999999999815 L 12.213146769375001 2.68182 L 12.053378769375001 2.68182 L 10.238870769375001 0.36898799999999987 L 10.238870769375001 2.68182 L 10.044866769375002 2.68182 L 10.044866769375002 0.019019999999999815 L 10.208438769375002 0.019019999999999815 L 12.019142769375001 2.331852 L 12.019142769375001 0.019019999999999815 L 12.213146769375001 0.019019999999999815 M 15.785885932734377 0.019019999999999815 L 15.785885932734377 2.68182 L 15.626117932734378 2.68182 L 13.811609932734378 0.36898799999999987 L 13.811609932734378 2.68182 L 13.617605932734378 2.68182 L 13.617605932734378 0.019019999999999815 L 13.781177932734378 0.019019999999999815 L 15.591881932734378 2.331852 L 15.591881932734378 0.019019999999999815 L 15.785885932734377 0.019019999999999815 M 18.012009096093752 1.765056 L 18.012009096093752 2.68182 L 17.818005096093753 2.68182 L 17.818005096093753 1.765056 L 16.745277096093755 0.019019999999999815 L 16.958301096093752 0.019019999999999815 L 17.920713096093753 1.586268 L 18.883125096093753 0.019019999999999815 L 19.084737096093754 0.019019999999999815 L 18.012009096093752 1.765056" fill="#ffffff" fill-rule="nonzero"></path>
        </g>
    <g></g>
    <g clip-path="url(#SvgjsClipPath1003)">
        <g clip-path="url(#SvgjsClipPath1002e05c0b9a-adca-4a2e-8572-e5823906f754)">
           <path d=" M 11.711693328818765 -5.371995486084728 L 6.717127343116805 -5.371995486084728 L 6.717127343116805 -0.3774295003827679 L 11.711693328818765 -0.3774295003827679 Z M 6.514634266892224 -5.574488562309309 L 6.514634266892224 -0.17493642415818744 L 11.914186405043345 -0.17493642415818744 L 11.914186405043345 -5.574488562309309 Z" fill="#015f43" transform="matrix(1,0,0,1,0,0)" fill-rule="evenodd"></path>
        </g>
        <g clip-path="url(#SvgjsClipPath1002e05c0b9a-adca-4a2e-8572-e5823906f754)">
            <path d=" M 12.386629752976953 -4.697059061926541 L 7.392063767274992 -4.697059061926541 L 7.392063767274992 0.29750692377542 L 12.386629752976953 0.29750692377542 Z M 7.189570691050411 -4.899552138151122 L 7.189570691050411 0.5 L 12.589122829201532 0.5 L 12.589122829201532 -4.899552138151122 Z" fill="#015f43" transform="matrix(1,0,0,1,0,0)" fill-rule="evenodd"></path>
        </g>
        <path d=" M 9.444410473248002 -1.0186221405773268 C 9.265222020082536 -1.0186221405773268 9.105872288517533 -1.0576596250169459 8.966361278552991 -1.135734593896185 C 8.82685026858845 -1.213809562775424 8.718057279166558 -1.3226025521973144 8.63998231028732 -1.4621135621618557 C 8.56190734140808 -1.6016245721263975 8.522869856968462 -1.7609743036914014 8.522869856968462 -1.9401627568568678 C 8.522869856968462 -1.9990389628969498 8.542068619807619 -2.0470358699948425 8.580466145485932 -2.0841534781505464 C 8.618863671164247 -2.12127108630625 8.666220619500836 -2.1398298903841018 8.722536990495696 -2.1398298903841018 C 8.781413196535777 -2.1398298903841018 8.82941010363367 -2.12127108630625 8.866527711789374 -2.0841534781505464 C 8.903645319945078 -2.0470358699948425 8.92220412402293 -1.9990389628969498 8.92220412402293 -1.9401627568568678 C 8.92220412402293 -1.8300898499123672 8.944602680668613 -1.7328161181939712 8.98939979395998 -1.6483415617016801 C 9.034196907251346 -1.5638670052093886 9.095632948336648 -1.4979512527949495 9.173707917215888 -1.4505943044583618 C 9.251782886095127 -1.4032373561217741 9.342017071439166 -1.3795588819534803 9.444410473248002 -1.3795588819534803 C 9.546803875056842 -1.3795588819534803 9.637678019162184 -1.4032373561217741 9.717032905564034 -1.4505943044583618 C 9.796387791965884 -1.4979512527949495 9.858463791812492 -1.5638670052093886 9.903260905103858 -1.6483415617016801 C 9.948058018395225 -1.7328161181939712 9.970456575040908 -1.8300898499123672 9.970456575040908 -1.9401627568568678 L 9.970456575040908 -3.8561992882047473 C 9.970456575040908 -3.9150754942448294 9.98901537911876 -3.963072401342722 10.026132987274464 -4.000190009498426 C 10.063250595430167 -4.03730761765413 10.10996758500545 -4.055866421731982 10.16628395600031 -4.055866421731982 C 10.225160162040392 -4.055866421731982 10.27379702789959 -4.03730761765413 10.312194553577903 -4.000190009498426 C 10.350592079256218 -3.963072401342722 10.369790842095377 -3.9150754942448294 10.369790842095377 -3.8561992882047473 L 10.369790842095377 -1.9401627568568678 C 10.369790842095377 -1.7609743036914014 10.33011339889445 -1.6016245721263975 10.250758512492602 -1.4621135621618557 C 10.171403626090752 -1.3226025521973144 10.062610636668861 -1.213809562775424 9.92437954422693 -1.135734593896185 C 9.786148451785 -1.0576596250169459 9.62615876145869 -1.0186221405773268 9.444410473248002 -1.0186221405773268" fill="#015f43" transform="matrix(1,0,0,1,0,0)" fill-rule="nonzero"></path>
        </g>
    </g>
    <defs>
    <clipPath id="SvgjsClipPath1003">
        <path d=" M 6.514634266892223 -5.574488562309309 h 6.074488562309309 v 6.074488562309309 h -6.074488562309309 Z"></path>
    </clipPath>
    <clipPath id="SvgjsClipPath1002e05c0b9a-adca-4a2e-8572-e5823906f754">
        <path d=" M 6.514634266892224 -5.574488562309309 L 12.589122829201532 -5.574488562309309 L 12.589122829201532 0.5 L 6.514634266892224 0.5 Z"></path>
    </clipPath>
</defs>
</svg>

